<?xml version="1.0" encoding="UTF-8"?>
<svg id="Capa_2" data-name="Capa 2" xmlns="http://www.w3.org/2000/svg" viewBox="0 0 1132.32 150">
  <defs>
    <style>
      .cls-1 {
        fill: #927eec;
      }
    </style>
  </defs>
  <g id="LOGOS">
    <g>
      <path class="cls-1" d="M0,75C0,30.2,26.6,0,69.8,0c33,0,56.2,17.6,65.4,45.6l-27.4,7.6c-5.4-17.4-18-27.6-38-27.6-27.4,0-41.2,19.4-41.2,49.4s13.8,49.4,41.2,49.4c20,0,32.6-10.2,38-27.6l27.4,7.6c-9.2,28-32.4,45.6-65.4,45.6C26.6,150,0,119.8,0,75Z"/>
      <path class="cls-1" d="M182.21,147V3h27.2V121.6h62v25.4h-89.2Z"/>
      <path class="cls-1" d="M313.91,147V3h27.2V147h-27.2Z"/>
      <path class="cls-1" d="M395.75,147V3h94V28.4h-66.8v30.8h54.8v25.4h-54.8v37h66.8v25.4h-94Z"/>
      <path class="cls-1" d="M538.73,147V3h27.6l62.6,96V3h27.6V147h-27.6l-62.6-96v96h-27.6Z"/>
      <path class="cls-1" d="M710.6,147V3h46.6c2.2,0,10.6,0,17.2,.8,34.8,4.2,54.2,34.6,54.2,71.2s-19.4,67-54.2,71.2c-6.6,.8-15,.8-17.2,.8h-46.6Zm27.6-25.6h19c3.6,0,10.6,0,15.6-1,18.8-3.8,27-24.8,27-45.4s-8.8-41.8-27-45.4c-5-1-12-1-15.6-1h-19V121.4Z"/>
      <path class="cls-1" d="M877.33,147V3h94V28.4h-66.8v30.8h54.8v25.4h-54.8v37h66.8v25.4h-94Z"/>
      <path class="cls-1" d="M1020.32,147V3h60.8c2.8,0,8.2,.2,12,.8,25.8,4,37.2,22.6,37.2,46.8,0,19.6-7.6,35.5-24,43l26,53.4h-30.8l-23.7-48.8h-30.3v48.8h-27.2Zm27.2-74.2h32.4c2.8,0,6.4-.2,9.2-1,11-3,13.8-13.4,13.8-21.2s-2.8-18.2-13.8-21.2c-2.8-.8-6.4-1-9.2-1h-32.4v44.4Z"/>
    </g>
  </g>
</svg>